# xmcd
#
# Track frame offsets:
# 150
# 12629
# 26401
# 37926
# 49209
# 61501
# 72265
# 84712
# 97957
# 107640
# 120963
# 134817
# 147229
# 157535
# 170089
# 181211
# 193663
# 208159
# 221806
# 233387
# 245178
# 257574
# 270063
# 281077
# 293777
# 306426
# 318423
# 332163
# 345368
#
# Disc length: 4755 seconds
#
#
# Revision: 0
# Processed by: cddbd v1.5.2PL0 Copyright (c) Steve Scherf et al.
# Submitted via: FreeRIP 2.945 
#
DISCID=a412911d
DTITLE=STAX  - The Stax Story [CD 2) Kinda blue
DYEAR=2000
DGENRE=Soul
TTITLE0=60-08 Carla and Rufus - Cause I love you
TTITLE1=61-11 William Bell - You don't miss your water
TTITLE2=62-10 Otis Redding - These arms of mine
TTITLE3=64-01 Rufus Thomas - Can your monkey do the dog
TTITLE4=64-03 Barbara and The Browns - Big Party
TTITLE5=64-09 Rufus Thomas - Jump back
TTITLE6=64-12 Otis Redding - Mr Pitiful
TTITLE7=65-01 David Porter - Can't see you when I want to
TTITLE8=65-04 Booker T and MGs - Boot-leg
TTITLE9=65-04 Otis Redding - I've been loving you too long (to stop now)
TTITLE10=65-05 Astors - Candy
TTITLE11=66-01 Mad Lads - I want someone
TTITLE12=66-01 Mar-Keys - Philly dog
TTITLE13=66-02 Otis Redding - (I can't get no) Satisfaction
TTITLE14=66-03 Eddie Floyd - Things get better
TTITLE15=66-03 Carla Thomas - Let me be good to you
TTITLE16=66-03 Ruby Johnson - I'll run your hurt away
TTITLE17=66-05 Mable John - Your good thing (is about to end)
TTITLE18=66-09 Mad Lads - Patch my heart
TTITLE19=66-11 Albert King - Crosscut saw
TTITLE20=67-05 Sam and Dave - I can't stan up for falling down
TTITLE21=67-06 Booker T and MGs - Groovin'
TTITLE22=67-09 Bar-Kays - Give everybody some
TTITLE23=67-12 Albert King - Cold feet
TTITLE24=68-01 Sam and Dave - I thank you
TTITLE25=68-02 Ollie and The Nightingales - I got a sure thing
TTITLE26=68-02 Eddie Floyd - Big bird
TTITLE27=68-03 William Bell - A tribute to a king
TTITLE28=68-04 Johnnie Taylor - I ain't particular
EXTD=
EXTT0=
EXTT1=
EXTT2=
EXTT3=
EXTT4=
EXTT5=
EXTT6=
EXTT7=
EXTT8=
EXTT9=
EXTT10=
EXTT11=
EXTT12=
EXTT13=
EXTT14=
EXTT15=
EXTT16=
EXTT17=
EXTT18=
EXTT19=
EXTT20=
EXTT21=
EXTT22=
EXTT23=
EXTT24=
EXTT25=
EXTT26=
EXTT27=
EXTT28=
PLAYORDER=
